 <?xml version="1.0" standalone="no"?>
<!DOCTYPE svg PUBLIC "-//W3C//DTD SVG 1.1//EN" "http://www.w3.org/Graphics/SVG/1.1/DTD/svg11.dtd" >
<svg xmlns="http://www.w3.org/2000/svg">
<metadata>Generated by IcoMoon</metadata>
<defs>
<font id="icomoon" horiz-adv-x="1024">
<font-face units-per-em="1024" ascent="960" descent="-64" />
<missing-glyph horiz-adv-x="1024" />
<glyph unicode="&#x20;" horiz-adv-x="512" d="" />
<glyph unicode="&#xe900;" glyph-name="search" d="M381.922 242.763c-170.448 0-309.497 139.050-309.497 309.497s139.050 309.497 309.497 309.497 309.497-134.564 309.497-309.497-139.050-309.497-309.497-309.497zM381.922 776.534c-121.108 0-219.788-98.681-219.788-219.788s98.681-219.788 219.788-219.788 219.788 94.195 219.788 215.303-98.681 224.273-219.788 224.273zM879.809-12.909c-13.456 0-22.427 4.486-31.399 13.456l-197.36 197.36c-17.942 17.942-17.942 44.855 0 62.796s44.855 17.942 62.796 0l197.36-197.36c17.942-17.942 17.942-44.855 0-62.796-8.971-8.971-22.427-13.456-31.399-13.456z" />
<glyph unicode="&#xe901;" glyph-name="activity" d="M870.4-55.466h-716.8c-34.133 0-59.733 25.6-59.733 59.733v401.067c0 34.133 25.6 59.733 59.733 59.733h716.8c34.133 0 59.733-25.6 59.733-59.733v-401.067c0-34.133-25.6-59.733-59.733-59.733zM153.6 422.4c-8.533 0-17.067-8.533-17.067-17.067v-401.067c0-8.533 8.533-17.067 17.067-17.067h716.8c8.533 0 17.067 8.533 17.067 17.067v401.067c0 8.533-8.533 17.067-17.067 17.067h-716.8zM913.067 422.4h-802.133c-34.133 0-59.733 25.6-59.733 59.733v209.067c0 34.133 25.6 59.733 59.733 59.733h802.133c34.133 0 59.733-25.6 59.733-59.733v-209.067c0-34.133-25.6-59.733-59.733-59.733zM110.933 708.267c-8.533 0-17.067-8.533-17.067-17.067v-209.067c0-8.533 8.533-17.067 17.067-17.067h802.133c8.533 0 17.067 8.533 17.067 17.067v209.067c0 8.533-8.533 17.067-17.067 17.067h-802.133zM622.933-55.466h-213.333v806.4h213.333v-806.4zM452.267-12.8h128v721.067h-128v-721.067zM520.533 712.534c-51.2 0-89.6 38.4-89.6 89.6s38.4 89.6 89.6 89.6 89.6-38.4 89.6-89.6-42.667-89.6-89.6-89.6zM520.533 849.067c-25.6 0-46.933-21.333-46.933-46.933s21.333-46.933 46.933-46.933c25.6 0 46.933 21.333 46.933 46.933s-21.333 46.933-46.933 46.933zM268.8 729.6v0c-25.6 0-46.933 12.8-64 29.867s-25.6 42.667-25.6 64c4.267 46.933 42.667 85.333 89.6 85.333h12.8c8.533 0 17.067-4.267 21.333-8.533l153.6-42.667-4.267-46.933v-46.933l-153.6-29.867c-4.267 0-12.8-4.267-21.333-4.267l-8.533 21.333v-21.333zM273.067 866.134c-25.6 0-46.933-21.333-51.2-46.933 0-12.8 4.267-25.6 12.8-34.133s21.333-12.8 34.133-12.8h4.267c4.267 0 8.533 0 12.8 4.267l123.733 25.6v29.867l-115.2 29.867c-8.533 0-12.8 0-17.067 4.267h-4.267c0 0 0 0 0 0zM755.2 729.6v0l-4.267 21.333-4.267-21.333c-8.533 0-17.067 0-21.333 4.267l-153.6 29.867v51.2l-4.267 46.933 153.6 42.667c4.267 0 12.8 4.267 21.333 4.267h8.533c0 0 0 0 0 0 51.2 0 89.6-38.4 93.867-85.333 0-25.6-8.533-46.933-25.6-64-17.067-21.333-38.4-29.867-64-29.867v0zM610.133 797.867l123.733-21.333c4.267 0 8.533-4.267 12.8-4.267h4.267c12.8 0 25.6 4.267 34.133 17.067 8.533 8.533 12.8 21.333 12.8 34.133 0 25.6-21.333 46.933-46.933 46.933h-8.533c-4.267 0-8.533 0-12.8-4.267l-123.733-34.133v-12.8l4.267-21.333z" />
<glyph unicode="&#xe902;" d="M819.2 503.467c0 81.067-64 149.333-140.8 157.867-64 8.533-128-25.6-162.133-76.8-29.867 51.2-89.6 76.8-149.333 76.8-89.6 0-153.6-68.267-157.867-153.6-4.267-93.867 72.533-192 132.267-256 34.133-38.4 68.267-72.533 106.667-102.4 17.067-12.8 38.4-34.133 59.733-38.4 4.267 0 8.533-4.267 8.533-4.267s4.267 0 8.533 4.267c21.333 4.267 42.667 21.333 59.733 34.133 38.4 29.867 72.533 59.733 102.4 93.867 59.733 68.267 132.267 166.4 132.267 264.533v0 0zM763.733 473.6c-8.533-76.8-72.533-149.333-123.733-204.8-25.6-25.6-51.2-51.2-76.8-72.533-12.8-8.533-51.2-34.133-51.2-34.133s-8.533 4.267-8.533 8.533-21.333 12.8-29.867 21.333c-29.867 21.333-55.467 51.2-81.067 76.8-51.2 55.467-110.933 123.733-128 200.533-12.8 55.467 17.067 119.467 76.8 132.267 55.467 12.8 115.2-29.867 157.867-81.067 8.533-8.533 17.067-12.8 25.6-4.267 8.533 4.267 17.067 12.8 21.333 21.333 8.533 8.533 12.8 12.8 17.067 17.067 34.133 34.133 68.267 55.467 106.667 51.2 64-8.533 102.4-76.8 93.867-132.267v0z" />
<glyph unicode="&#xe903;" d="M512-34.133c-251.733 0-460.8 204.8-460.8 460.8s209.067 456.533 460.8 456.533 460.8-204.8 460.8-456.533-209.067-460.8-460.8-460.8zM512 840.534c-230.4 0-418.133-187.733-418.133-418.133s187.733-418.133 418.133-418.133 418.133 187.733 418.133 418.133c0 234.667-187.733 418.133-418.133 418.133z" />
<glyph unicode="&#xe904;" glyph-name="me" d="M722.037 292.601c-8.937-13.407-8.937-31.282 4.469-40.22 89.377-67.033 138.536-174.286 138.536-286.009 0-13.407 13.407-26.813 26.813-26.813s26.813 13.407 26.813 26.813c0 129.597-58.096 250.257-160.88 330.697-8.937 8.937-26.813 8.937-35.751-4.469v0zM132.145-60.441c13.407 0 26.813 13.407 26.813 26.813 0 201.1 160.88 361.979 353.042 361.979 151.942 0 272.602 125.129 272.602 277.070s-120.66 277.070-272.602 277.070c-151.942 0-272.602-125.129-272.602-277.070 0-102.784 53.627-196.63 143.004-245.789-165.349-58.096-281.539-218.975-281.539-393.262 0-13.407 13.407-26.813 31.282-26.813v0zM512 828.866c120.66 0 218.975-98.316 218.975-223.444 0-120.66-98.316-223.444-218.975-223.444s-218.975 98.316-218.975 223.444c0 125.129 98.316 223.444 218.975 223.444v0z" />
<glyph unicode="&#xe905;" glyph-name="plus" d="M84.815 462.868h917.335v-55.597h-917.335v55.597zM512.904 890.956h55.597v-917.335h-55.597v917.335z" />
<glyph unicode="&#xe906;" glyph-name="classification" d="M955.733 750.934h-605.867c-12.8 0-21.333 8.533-21.333 21.333s8.533 21.333 21.333 21.333h605.867c12.8 0 21.333-8.533 21.333-21.333s-8.533-21.333-21.333-21.333zM955.733 405.334h-605.867c-12.8 0-21.333 8.533-21.333 21.333s8.533 21.333 21.333 21.333h605.867c12.8 0 21.333-8.533 21.333-21.333s-8.533-21.333-21.333-21.333zM955.733 59.734h-605.867c-12.8 0-21.333 8.533-21.333 21.333s8.533 21.333 21.333 21.333h605.867c12.8 0 21.333-8.533 21.333-21.333s-8.533-21.333-21.333-21.333zM179.2 750.934h-93.867c-12.8 0-21.333 8.533-21.333 21.333s8.533 21.333 21.333 21.333h93.867c12.8 0 21.333-8.533 21.333-21.333s-8.533-21.333-21.333-21.333zM179.2 405.334h-93.867c-12.8 0-21.333 8.533-21.333 21.333s8.533 21.333 21.333 21.333h93.867c12.8 0 21.333-8.533 21.333-21.333s-8.533-21.333-21.333-21.333zM179.2 59.734h-93.867c-12.8 0-21.333 8.533-21.333 21.333s8.533 21.333 21.333 21.333h93.867c12.8 0 21.333-8.533 21.333-21.333s-8.533-21.333-21.333-21.333z" />
<glyph unicode="&#xe907;" glyph-name="shopcar" d="M917.333 166.4h-563.2c-34.133 0-64 34.133-68.267 81.067l-55.467 520.533c-4.267 25.6-17.067 42.667-25.6 42.667h-128c-12.8 0-21.333 8.533-21.333 21.333s8.533 21.333 21.333 21.333h123.733c34.133 0 64-34.133 68.267-81.067l55.467-520.533c4.267-25.6 17.067-42.667 25.6-42.667h558.933c12.8 0 21.333-8.533 21.333-21.333s-4.267-21.333-12.8-21.333zM422.4-8.533c-34.133 0-64 29.867-64 68.267s29.867 68.267 64 68.267 64-29.867 64-68.267-29.867-68.267-64-68.267zM422.4 85.334c-12.8 0-21.333-12.8-21.333-25.6s8.533-25.6 21.333-25.6c12.8 0 21.333 12.8 21.333 25.6s-8.533 25.6-21.333 25.6zM806.4-8.533c-34.133 0-64 29.867-64 68.267s29.867 68.267 64 68.267 64-29.867 64-68.267-29.867-68.267-64-68.267zM806.4 85.334c-12.8 0-21.333-12.8-21.333-25.6s8.533-25.6 21.333-25.6c12.8 0 21.333 12.8 21.333 25.6s-8.533 25.6-21.333 25.6zM874.667 294.4h-439.467c-12.8 0-21.333 8.533-21.333 21.333s8.533 21.333 21.333 21.333h435.2c12.8 0 21.333-8.533 21.333-21.333s-4.267-21.333-17.067-21.333zM921.6 460.8h-533.333c-12.8 0-21.333 8.533-21.333 21.333s8.533 21.333 21.333 21.333h533.333c12.8 0 21.333-8.533 21.333-21.333s-8.533-21.333-21.333-21.333z" />
<glyph unicode="&#xe908;" glyph-name="bin" d="M653.196 817.309h-216.501c-14.12 0-23.533 9.413-23.533 23.533s9.413 23.533 23.533 23.533h216.501c14.12 0 23.533-9.413 23.533-23.533s-9.413-23.533-23.533-23.533zM455.522 134.862c-14.12 0-23.533 9.413-23.533 23.533v357.697c0 14.12 9.413 23.533 23.533 23.533s23.533-9.413 23.533-23.533v-352.99c0-14.12-9.413-28.24-23.533-28.24zM662.609 134.862c-14.12 0-23.533 9.413-23.533 23.533v357.697c0 14.12 9.413 23.533 23.533 23.533s23.533-9.413 23.533-23.533v-352.99c0-14.12-9.413-28.24-23.533-28.24zM888.521 718.473h-687.153c-14.12 0-23.533 9.413-23.533 23.533s9.413 23.533 23.533 23.533h687.153c14.12 0 23.533-9.413 23.533-23.533s-9.413-23.533-23.533-23.533zM780.272-48.692h-465.946c-51.771 0-94.131 42.358-94.131 94.131v597.729c0 14.12 9.413 23.533 23.533 23.533s23.533-9.413 23.533-23.533v-597.729c0-23.533 18.827-47.065 47.065-47.065h465.946c23.533 0 47.065 18.827 47.065 47.065v597.729c0 14.12 9.413 23.533 23.533 23.533s23.533-9.413 23.533-23.533v-597.729c0-51.771-42.358-94.131-94.131-94.131z" />
<glyph unicode="&#xe909;" glyph-name="oder" d="M942.933 76.8h-861.867c-34.133 0-59.733 25.6-59.733 59.733v558.933c0 34.133 25.6 59.733 59.733 59.733h861.867c34.133 0 59.733-25.6 59.733-59.733v-563.2c0-29.867-25.6-55.467-59.733-55.467zM81.067 712.534c-8.533 0-17.067-8.533-17.067-17.067v-563.2c0-8.533 8.533-17.067 17.067-17.067h861.867c8.533 0 17.067 8.533 17.067 17.067v563.2c0 8.533-8.533 17.067-17.067 17.067h-861.867zM315.733 452.267h-226.133v226.133h226.133v-226.133zM132.267 494.934h140.8v140.8h-140.8v-140.8zM601.6 366.934h298.667v-42.667h-298.667v42.667zM601.6 302.934h298.667v-42.667h-298.667v42.667zM601.6 243.2h196.267v-42.667h-196.267v42.667z" />
<glyph unicode="&#xe90a;" glyph-name="cargo" d="M942.933 42.667h-861.867c-34.133 0-59.733 25.6-59.733 59.733v563.2c0 29.867 25.6 59.733 59.733 59.733h861.867c34.133 0 59.733-25.6 59.733-59.733v-563.2c0-34.133-25.6-59.733-59.733-59.733zM81.067 682.667c-8.533 0-17.067-8.533-17.067-17.067v-563.2c0-8.533 8.533-17.067 17.067-17.067h861.867c8.533 0 17.067 8.533 17.067 17.067v563.2c0 8.533-8.533 17.067-17.067 17.067h-861.867zM699.733 226.134l-183.467 68.267-192-68.267v499.2h375.467v-499.2zM366.933 682.667v-392.533l149.333 51.2 140.8-51.2v392.533h-290.133zM456.533 516.267h119.467v-42.667h-119.467v42.667zM456.533 452.267h119.467v-42.667h-119.467v42.667z" />
<glyph unicode="&#xe90b;" glyph-name="cargocar" d="M900.267 157.867h-490.667c-34.133 0-59.733 25.6-59.733 59.733v345.6c0 34.133 25.6 59.733 59.733 59.733h490.667c34.133 0 59.733-25.6 59.733-59.733v-349.867c0-29.867-25.6-55.467-59.733-55.467zM409.6 580.267c-8.533 0-17.067-8.533-17.067-17.067v-349.867c0-8.533 8.533-17.067 17.067-17.067h490.667c8.533 0 17.067 8.533 17.067 17.067v349.867c0 8.533-8.533 17.067-17.067 17.067h-490.667zM311.467 157.867h-204.8c-34.133 0-59.733 25.6-59.733 59.733v256c0 34.133 25.6 59.733 59.733 59.733h204.8c34.133 0 59.733-25.6 59.733-59.733v-256c0-34.133-25.6-59.733-59.733-59.733zM106.667 486.4c-8.533 0-17.067-8.533-17.067-17.067v-256c0-8.533 8.533-17.067 17.067-17.067h204.8c8.533 0 17.067 8.533 17.067 17.067v256c0 8.533-8.533 17.067-17.067 17.067h-204.8zM183.467 76.8c-38.4 0-68.267 29.867-68.267 68.267h42.667c0-12.8 12.8-25.6 25.6-25.6s25.6 12.8 25.6 25.6h42.667c0-38.4-29.867-68.267-68.267-68.267zM819.2 76.8c-38.4 0-68.267 29.867-68.267 68.267h42.667c0-12.8 12.8-25.6 25.6-25.6s25.6 12.8 25.6 25.6h42.667c0-38.4-29.867-68.267-68.267-68.267zM273.067 277.334h-123.733v42.667h81.067v123.733h42.667zM477.867 320h162.133v-42.667h-162.133v42.667zM477.867 384h226.133v-42.667h-226.133v42.667zM477.867 439.467h251.733v-42.667h-251.733v42.667z" />
<glyph unicode="&#xe90c;" glyph-name="finish" d="M942.933 85.334h-861.867c-34.133 0-59.733 25.6-59.733 59.733v563.2c0 29.867 25.6 59.733 59.733 59.733h861.867c34.133 0 59.733-25.6 59.733-59.733v-563.2c0-34.133-25.6-59.733-59.733-59.733zM81.067 725.334c-8.533 0-17.067-8.533-17.067-17.067v-563.2c0-8.533 8.533-17.067 17.067-17.067h861.867c8.533 0 17.067 8.533 17.067 17.067v563.2c0 8.533-8.533 17.067-17.067 17.067h-861.867zM140.8 558.934h290.133v-42.667h-290.133v42.667zM140.8 469.334h290.133v-42.667h-290.133v42.667zM140.8 375.467h290.133v-42.667h-290.133v42.667zM140.8 285.867h230.4v-42.667h-230.4v42.667zM750.933 230.4c-98.133 0-179.2 81.067-179.2 179.2s81.067 179.2 179.2 179.2 179.2-81.067 179.2-179.2-81.067-179.2-179.2-179.2zM750.933 546.134c-76.8 0-136.533-59.733-136.533-136.533s59.733-136.533 136.533-136.533 136.533 59.733 136.533 136.533-59.733 136.533-136.533 136.533zM725.333 311.467l-64 46.933 25.6 34.133 29.867-21.333 93.867 119.467 29.867-25.6z" />
<glyph unicode="&#xe90d;" glyph-name="alloder" d="M947.2 85.334h-861.867c-34.133 0-59.733 25.6-59.733 59.733v563.2c0 34.133 25.6 59.733 59.733 59.733h861.867c34.133 0 59.733-25.6 59.733-59.733v-563.2c0-34.133-29.867-59.733-59.733-59.733zM85.334 721.067c-8.533 0-17.067-8.533-17.067-17.067v-563.2c0-8.533 8.533-17.067 17.067-17.067h861.867c8.533 0 17.067 8.533 17.067 17.067v567.467c0 8.533-8.533 17.067-17.067 17.067h-861.867zM371.2 558.934h290.133v-42.667h-290.133v42.667zM371.2 469.334h290.133v-42.667h-290.133v42.667zM371.2 375.467h290.133v-42.667h-290.133v42.667zM401.067 285.867h230.4v-42.667h-230.4v42.667z" />
<glyph unicode="&#xe90e;" glyph-name="noting" d="M401.067 418.134h290.133v-42.667h-290.133v42.667zM401.067 324.267h290.133v-42.667h-290.133v42.667zM401.067 234.667h290.133v-42.667h-290.133v42.667zM430.933 140.8h230.4v-42.667h-230.4v42.667zM883.2-64h-699.733c-34.133 0-59.733 25.6-59.733 59.733v861.867c0 34.133 25.6 59.733 59.733 59.733h699.733c34.133 0 59.733-25.6 59.733-59.733v-861.867c0-34.133-25.6-59.733-59.733-59.733zM183.467 874.667c-8.533 0-17.067-8.533-17.067-17.067v-861.867c0-8.533 8.533-17.067 17.067-17.067h699.733c8.533 0 17.067 8.533 17.067 17.067v861.867c0 8.533-8.533 17.067-17.067 17.067h-699.733zM209.067 576h29.867l29.867-51.2v51.2h29.867v-98.133h-29.867l-29.867 51.2v-55.467h-29.867v102.4zM362.667 576c29.867 0 51.2-21.333 51.2-51.2s-21.333-51.2-51.2-51.2c-29.867 0-51.2 21.333-51.2 51.2s21.333 51.2 51.2 51.2zM362.667 499.2c8.533 0 21.333 4.267 21.333 25.6s-12.8 25.6-21.333 25.6-21.333-4.267-21.333-25.6c0-21.333 12.8-25.6 21.333-25.6zM448 550.4h-25.6v25.6h85.333v-25.6h-29.867v-72.533h-29.867v72.533zM516.267 576h29.867v-34.133h29.867v34.133h29.867v-98.133h-29.867v38.4h-29.867v-38.4h-29.867v98.133zM622.933 576h29.867v-98.133h-29.867v98.133zM669.867 576h29.867l29.867-51.2v51.2h29.867v-98.133h-29.867l-29.867 55.467v-55.467h-29.867v98.133zM849.067 486.4c-8.533-8.533-17.067-12.8-29.867-12.8-29.867 0-46.933 21.333-46.933 51.2 0 38.4 25.6 51.2 46.933 51.2 25.6 0 42.667-12.8 46.933-38.4h-29.867c0 8.533-8.533 12.8-12.8 12.8-21.333 0-21.333-21.333-21.333-29.867s4.267-25.6 21.333-25.6c8.533 0 12.8 4.267 17.067 12.8h-12.8v21.333h42.667v-55.467h-21.333v12.8zM209.067 704h29.867l29.867-51.2v51.2h29.867v-98.133h-29.867l-29.867 55.467v-55.467h-29.867v98.133zM362.667 708.267c29.867 0 51.2-21.333 51.2-51.2s-21.333-55.467-51.2-55.467c-29.867 0-51.2 21.333-51.2 51.2s21.333 55.467 51.2 55.467zM362.667 627.2c8.533 0 21.333 4.267 21.333 25.6-4.267 25.6-12.8 29.867-21.333 29.867s-21.333-4.267-21.333-25.6c0-25.6 12.8-29.867 21.333-29.867zM448 678.4h-25.6v25.6h85.333v-25.6h-29.867v-72.533h-29.867v72.533zM516.267 704h29.867v-34.133h29.867v34.133h29.867v-98.133h-29.867v38.4h-29.867v-38.4h-29.867v98.133zM622.933 704h29.867v-98.133h-29.867v98.133zM669.867 704h29.867l29.867-51.2v51.2h29.867v-98.133h-29.867l-29.867 55.467v-55.467h-29.867v98.133zM849.067 614.4c-8.533-8.533-17.067-12.8-29.867-12.8-29.867 0-46.933 21.333-46.933 51.2 0 38.4 25.6 51.2 46.933 51.2 25.6 0 42.667-12.8 46.933-38.4h-29.867c0 8.533-8.533 12.8-12.8 12.8-21.333 0-21.333-21.333-21.333-29.867s4.267-25.6 21.333-25.6c8.533 0 12.8 4.267 17.067 12.8h-12.8v25.6h42.667v-55.467h-21.333v8.533z" />
<glyph unicode="&#xe90f;" glyph-name="position" d="M521.895-18.611c-24.738 0-44.529 14.843-54.421 34.634l-217.691 494.752c-19.791 44.529-29.686 98.95-19.791 148.427 14.843 118.741 123.689 217.691 252.322 232.534 173.162 19.791 321.589-108.846 321.589-267.165 0-39.581-9.895-79.16-29.686-113.793l-197.901-484.856c-9.895-29.686-34.634-44.529-54.421-44.529zM512 842.259c-9.895 0-19.791 0-29.686 0-103.898-14.843-192.953-94.003-202.848-192.953-4.948-39.581 0-79.16 19.791-118.741l217.691-494.752c0-4.948 4.948-4.948 9.895-4.948 0 0 4.948 0 9.895 4.948l197.901 489.804c14.843 29.686 24.738 64.317 24.738 94.003-9.895 123.689-118.741 222.639-247.374 222.639zM512 466.248c-69.264 0-123.689 54.421-123.689 123.689s54.421 123.689 123.689 123.689c69.264 0 123.689-54.421 123.689-123.689s-54.421-123.689-123.689-123.689zM512 664.149c-39.581 0-74.212-34.634-74.212-74.212s34.634-74.212 74.212-74.212 74.212 34.634 74.212 74.212-34.634 74.212-74.212 74.212z" />
<glyph unicode="&#xe910;" glyph-name="problem" d="M524.8-8.533c-243.2 0-435.2 196.267-435.2 435.2s192 435.2 435.2 435.2 430.933-196.267 430.933-435.2-192-435.2-430.933-435.2zM524.8 819.2c-217.6 0-392.533-174.933-392.533-392.533s174.933-392.533 392.533-392.533 392.533 174.933 392.533 392.533-179.2 392.533-392.533 392.533zM388.267 473.6c4.267 64 42.667 128 140.8 128s132.267-59.733 132.267-102.4c0-59.733-34.133-72.533-68.267-89.6-21.333-12.8-29.867-21.333-29.867-46.933h-93.867c0 21.333-4.267 68.267 34.133 89.6 17.067 8.533 46.933 17.067 46.933 38.4 0 17.067-8.533 25.6-29.867 25.6-25.6 0-34.133-21.333-29.867-42.667h-102.4zM465.067 332.8h102.4v-98.133h-102.4v98.133z" />
<glyph unicode="&#xe911;" glyph-name="more" d="M900.267 806.4h-776.533c-12.8 0-21.333 8.533-21.333 21.333s8.533 21.333 21.333 21.333h776.533c12.8 0 21.333-8.533 21.333-21.333s-8.533-21.333-21.333-21.333zM900.267 546.134h-776.533c-12.8 0-21.333 8.533-21.333 21.333s8.533 21.333 21.333 21.333h776.533c12.8 0 21.333-8.533 21.333-21.333s-8.533-21.333-21.333-21.333zM900.267 285.867h-776.533c-12.8 0-21.333 8.533-21.333 21.333s8.533 21.333 21.333 21.333h776.533c12.8 0 21.333-8.533 21.333-21.333s-8.533-21.333-21.333-21.333zM699.733 25.6h-576c-12.8 0-21.333 8.533-21.333 21.333s8.533 21.333 21.333 21.333h576c12.8 0 21.333-8.533 21.333-21.333s-8.533-21.333-21.333-21.333z" />
<glyph unicode="&#xe912;" glyph-name="wechat" d="M512-8.533c-238.933 0-435.2 192-435.2 435.2s196.267 435.2 435.2 435.2 435.2-196.267 435.2-435.2-196.267-435.2-435.2-435.2zM512 819.2c-217.6 0-392.533-179.2-392.533-392.533s174.933-392.533 392.533-392.533 392.533 174.933 392.533 392.533-174.933 392.533-392.533 392.533zM601.6 507.734c4.267 0 12.8 0 17.067 0-17.067 72.533-93.867 123.733-179.2 123.733-98.133 0-179.2-68.267-179.2-149.333 0-46.933 25.6-89.6 72.533-119.467l-17.067-55.467 64 29.867c21.333-4.267 38.4-8.533 64-8.533 4.267 0 12.8 0 17.067 0-4.267 12.8-4.267 25.6-4.267 38.4-8.533 76.8 59.733 140.8 145.067 140.8v0zM503.467 554.667c12.8 0 21.333-8.533 21.333-21.333s-8.533-21.333-21.333-21.333c-12.8 0-25.6 8.533-25.6 21.333s12.8 21.333 25.6 21.333v0zM379.733 507.734c-12.8 0-25.6 8.533-25.6 21.333 0 17.067 12.8 25.6 25.6 25.6s21.333-8.533 21.333-21.333c4.267-12.8-8.533-25.6-21.333-25.6v0zM763.733 366.934c0 72.533-72.533 128-149.333 128-85.333 0-149.333-59.733-149.333-128 0-72.533 68.267-128 149.333-128 17.067 0 34.133 4.267 51.2 8.533l46.933-25.6-12.8 42.667c38.4 25.6 64 64 64 102.4v0zM563.2 388.267c-8.533 0-17.067 8.533-17.067 17.067s8.533 17.067 17.067 17.067c12.8 0 21.333-8.533 21.333-17.067s-8.533-17.067-21.333-17.067v0zM661.333 388.267c-8.533 0-17.067 8.533-17.067 17.067s8.533 17.067 17.067 17.067c12.8 0 21.333-8.533 21.333-17.067s-8.533-17.067-21.333-17.067v0z" />
<glyph unicode="&#xe913;" glyph-name="tenfifteen" d="M512-8.533c-238.933 0-435.2 196.267-435.2 435.2s196.267 435.2 435.2 435.2 435.2-196.267 435.2-435.2-196.267-435.2-435.2-435.2zM512 819.2c-217.6 0-392.533-174.933-392.533-392.533s174.933-392.533 392.533-392.533 392.533 174.933 392.533 392.533-174.933 392.533-392.533 392.533zM469.333 401.067h298.667v-34.133h-298.667v34.133zM469.333 665.6h34.133v-298.667h-34.133v298.667z" />
<glyph unicode="&#xe914;" glyph-name="more2" d="M325.773 392.031c0-51.841-42.025-93.866-93.866-93.866s-93.866 42.025-93.866 93.866c0 51.841 42.025 93.866 93.866 93.866s93.866-42.025 93.866-93.866zM607.374 392.031c0-51.841-42.025-93.866-93.866-93.866s-93.866 42.025-93.866 93.866c0 51.841 42.025 93.866 93.866 93.866s93.866-42.025 93.866-93.866zM883.451 392.031c0-51.841-42.025-93.866-93.866-93.866s-93.866 42.025-93.866 93.866c0 51.841 42.025 93.866 93.866 93.866s93.866-42.025 93.866-93.866z" />
<glyph unicode="&#xe915;" glyph-name="classification2" d="M955.733 750.934h-605.867c-12.8 0-21.333 8.533-21.333 21.333s8.533 21.333 21.333 21.333h605.867c12.8 0 21.333-8.533 21.333-21.333s-8.533-21.333-21.333-21.333zM955.733 405.334h-605.867c-12.8 0-21.333 8.533-21.333 21.333s8.533 21.333 21.333 21.333h605.867c12.8 0 21.333-8.533 21.333-21.333s-8.533-21.333-21.333-21.333zM955.733 59.734h-605.867c-12.8 0-21.333 8.533-21.333 21.333s8.533 21.333 21.333 21.333h605.867c12.8 0 21.333-8.533 21.333-21.333s-8.533-21.333-21.333-21.333zM179.2 750.934h-93.867c-12.8 0-21.333 8.533-21.333 21.333s8.533 21.333 21.333 21.333h93.867c12.8 0 21.333-8.533 21.333-21.333s-8.533-21.333-21.333-21.333zM179.2 405.334h-93.867c-12.8 0-21.333 8.533-21.333 21.333s8.533 21.333 21.333 21.333h93.867c12.8 0 21.333-8.533 21.333-21.333s-8.533-21.333-21.333-21.333zM179.2 59.734h-93.867c-12.8 0-21.333 8.533-21.333 21.333s8.533 21.333 21.333 21.333h93.867c12.8 0 21.333-8.533 21.333-21.333s-8.533-21.333-21.333-21.333z" />
<glyph unicode="&#xe916;" glyph-name="problem2" d="M524.8-8.533c-243.2 0-435.2 196.267-435.2 435.2s192 435.2 435.2 435.2 430.933-196.267 430.933-435.2-192-435.2-430.933-435.2zM524.8 819.2c-217.6 0-392.533-174.933-392.533-392.533s174.933-392.533 392.533-392.533 392.533 174.933 392.533 392.533-179.2 392.533-392.533 392.533zM388.267 473.6c4.267 64 42.667 128 140.8 128s132.267-59.733 132.267-102.4c0-59.733-34.133-72.533-68.267-89.6-21.333-12.8-29.867-21.333-29.867-46.933h-93.867c0 21.333-4.267 68.267 34.133 89.6 17.067 8.533 46.933 17.067 46.933 38.4 0 17.067-8.533 25.6-29.867 25.6-25.6 0-34.133-21.333-29.867-42.667h-102.4zM465.067 332.8h102.4v-98.133h-102.4v98.133z" />
<glyph unicode="&#xe917;" glyph-name="error" d="M512 883.199c-253.078 0-456.532-203.454-456.532-456.532s203.454-456.532 456.532-456.532 456.532 203.454 456.532 456.532c0 253.078-203.454 456.532-456.532 456.532zM745.23 228.175c9.925-9.925 9.925-24.81 0-34.736-4.963-4.963-9.925-4.963-14.888-4.963s-9.925 0-14.888 4.963l-198.492 198.492-198.492-198.492c-4.963-4.963-9.925-4.963-14.888-4.963s-9.925 0-14.888 4.963c-9.925 9.925-9.925 24.81 0 34.736l198.492 198.492-198.492 198.492c-9.925 9.925-9.925 24.81 0 34.736s24.81 9.925 34.736 0l198.492-198.492 198.492 198.492c9.925 9.925 24.81 9.925 34.736 0s9.925-24.81 0-34.736l-198.492-198.492 188.569-198.492z" />
<glyph unicode="&#xe918;" glyph-name="oder2" d="M832-42.666h-640c-34.133 0-59.733 25.6-59.733 59.733v814.933c0 34.133 25.6 59.733 59.733 59.733h640c34.133 0 59.733-25.6 59.733-59.733v-814.933c0-34.133-25.6-59.733-59.733-59.733zM192 849.067c-8.533 0-17.067-8.533-17.067-17.067v-814.933c0-8.533 8.533-17.067 17.067-17.067h640c8.533 0 17.067 8.533 17.067 17.067v814.933c0 8.533-8.533 17.067-17.067 17.067h-640zM247.467 422.4h290.133v-42.667h-290.133v42.667zM247.467 332.8h290.133v-42.667h-290.133v42.667zM247.467 238.934h290.133v-42.667h-290.133v42.667zM247.467 149.334h230.4v-42.667h-230.4v42.667z" />
<glyph unicode="&#xe919;" glyph-name="ask" d="M524.8-8.533c-243.2 0-435.2 196.267-435.2 435.2s192 435.2 435.2 435.2 430.933-196.267 430.933-435.2-192-435.2-430.933-435.2zM524.8 819.2c-217.6 0-392.533-174.933-392.533-392.533s174.933-392.533 392.533-392.533 392.533 174.933 392.533 392.533-179.2 392.533-392.533 392.533zM388.267 473.6c4.267 64 42.667 128 140.8 128s132.267-59.733 132.267-102.4c0-59.733-34.133-72.533-68.267-89.6-21.333-12.8-29.867-21.333-29.867-46.933h-93.867c0 21.333-4.267 68.267 34.133 89.6 17.067 8.533 46.933 17.067 46.933 38.4 0 17.067-8.533 25.6-29.867 25.6-25.6 0-34.133-21.333-29.867-42.667h-102.4zM465.067 332.8h102.4v-98.133h-102.4v98.133z" />
<glyph unicode="&#xe91a;" glyph-name="qna" d="M512-17.066c-238.933 0-435.2 196.267-435.2 435.2s196.267 435.2 435.2 435.2 435.2-196.267 435.2-435.2-196.267-435.2-435.2-435.2zM512 810.667c-217.6 0-392.533-174.933-392.533-392.533s174.933-392.533 392.533-392.533 392.533 174.933 392.533 392.533-174.933 392.533-392.533 392.533zM366.933 273.067l-29.867 29.867c-12.8-8.533-29.867-12.8-51.2-12.8-64 0-106.667 46.933-106.667 110.933s42.667 110.933 106.667 110.933 106.667-46.933 106.667-110.933c0-29.867-8.533-55.467-25.6-76.8l25.6-25.6-25.6-25.6zM307.2 392.534l17.067-17.067c4.267 8.533 4.267 17.067 4.267 29.867 0 46.933-25.6 59.733-42.667 59.733s-42.667-12.8-42.667-59.733c0-46.933 25.6-59.733 42.667-59.733 4.267 0 4.267 0 8.533 0l-17.067 17.067 29.867 29.867zM550.4 311.467c-21.333-17.067-38.4-21.333-59.733-21.333-42.667 0-72.533 29.867-72.533 68.267 0 29.867 25.6 46.933 46.933 59.733-8.533 12.8-17.067 25.6-17.067 38.4 0 34.133 29.867 55.467 64 55.467 38.4 0 68.267-17.067 68.267-55.467 0-25.6-17.067-42.667-38.4-55.467l12.8-17.067c4.267 4.267 8.533 12.8 8.533 17.067h51.2c-4.267-17.067-12.8-38.4-25.6-51.2l42.667-51.2h-68.267l-12.8 12.8zM494.933 379.734c-8.533-4.267-21.333-12.8-21.333-21.333 0-12.8 8.533-21.333 21.333-21.333 8.533 0 17.067 4.267 25.6 12.8l-25.6 29.867zM512 439.467c8.533 4.267 17.067 12.8 17.067 21.333s-4.267 12.8-12.8 12.8c-8.533 0-17.067-4.267-17.067-12.8s8.533-17.067 12.8-21.333zM704 507.734h64l76.8-213.333h-68.267l-8.533 29.867h-68.267l-8.533-29.867h-68.267l81.067 213.333zM755.2 371.2l-17.067 64-21.333-64h38.4z" />
<glyph unicode="&#xe91b;" d="M554.667-17.066c-238.933 0-435.2 196.267-435.2 435.2s196.267 435.2 435.2 435.2 435.2-196.267 435.2-435.2-196.267-435.2-435.2-435.2zM554.667 810.667c-213.333 0-392.533-174.933-392.533-392.533s179.2-392.533 392.533-392.533 392.533 174.933 392.533 392.533-174.933 392.533-392.533 392.533z" />
<glyph unicode="&#xe91c;" d="M797.867 290.134v0c0 0-8.533 8.533-8.533 8.533s-4.267 8.533-21.333 21.333c-12.8 8.533-29.867 21.333-38.4 29.867-12.8 8.533-25.6 17.067-25.6 17.067l-12.8 4.267c-4.267 4.267-12.8 4.267-17.067 0-4.267 0-8.533-4.267-12.8-8.533 0 0-4.267-4.267-12.8-21.333-4.267-8.533-8.533-17.067-12.8-25.6-8.533-12.8-25.6-25.6-46.933-17.067-25.6 12.8-55.467 34.133-89.6 64-38.4 34.133-55.467 64-68.267 89.6-4.267 8.533-4.267 29.867 12.8 38.4s25.6 8.533 34.133 17.067c8.533 4.267 8.533 4.267 17.067 8.533 0 0 4.267 4.267 4.267 4.267s0 0 0 0c12.8 4.267 12.8 12.8 8.533 21.333v4.267c0 0-8.533 17.067-17.067 34.133-4.267 8.533-12.8 21.333-21.333 29.867-17.067 25.6-34.133 29.867-34.133 29.867s-4.267 8.533-8.533 8.533c-8.533 4.267-17.067 4.267-25.6 0-17.067-8.533-25.6-17.067-38.4-29.867-29.867-21.333-51.2-55.467-46.933-85.333 4.267-46.933 64-145.067 136.533-217.6 76.8-72.533 179.2-123.733 226.133-132.267 34.133-4.267 59.733 12.8 85.333 38.4 8.533 8.533 21.333 21.333 29.867 38.4 8.533 8.533 8.533 21.333 4.267 29.867v0z" />
<glyph unicode="&#xe91d;" glyph-name="flash" d="M541.867-8.533c-238.933 0-430.933 196.267-430.933 435.2s192 435.2 430.933 435.2 435.2-196.267 435.2-435.2-192-435.2-435.2-435.2zM541.867 819.2c-217.6 0-392.533-174.933-392.533-392.533s174.933-392.533 392.533-392.533 392.533 174.933 392.533 392.533-174.933 392.533-392.533 392.533zM699.733 460.8h-102.4l34.133 230.4-243.2-298.667h123.733l-34.133-230.4 221.867 298.667z" />
<glyph unicode="&#xe91e;" glyph-name="-" d="M524.8-38.4c-238.933 0-435.2 196.267-435.2 435.2s192 435.2 435.2 435.2 435.2-196.267 435.2-435.2-196.267-435.2-435.2-435.2zM524.8 789.334c-217.6 0-392.533-174.933-392.533-392.533s174.933-392.533 392.533-392.533 392.533 174.933 392.533 392.533-179.2 392.533-392.533 392.533zM238.933 413.867h563.2v-34.133h-563.2v34.133z" />
<glyph unicode="&#xe91f;" glyph-name="+" d="M482.133-12.8c-238.933 0-435.2 196.267-435.2 435.2s192 435.2 435.2 435.2 435.2-196.267 435.2-435.2-196.267-435.2-435.2-435.2zM482.133 814.934c-217.6 0-392.533-174.933-392.533-392.533s174.933-392.533 392.533-392.533 392.533 174.933 392.533 392.533-179.2 392.533-392.533 392.533zM196.267 439.467h563.2v-34.133h-563.2v34.133zM465.067 704h34.133v-563.2h-34.133v563.2z" />
<glyph unicode="&#xe920;" glyph-name="position2" d="M503.467 115.2c-12.8 0-25.6 8.533-29.867 17.067l-119.467 277.333c-12.8 25.6-17.067 55.467-12.8 81.067 8.533 68.267 68.267 119.467 140.8 128 98.133 8.533 179.2-59.733 179.2-149.333 0-21.333-4.267-42.667-17.067-64l-110.933-273.067c-4.267-8.533-17.067-17.067-29.867-17.067zM499.2 593.067c-4.267 0-8.533 0-17.067 0-59.733-4.267-106.667-51.2-115.2-106.667-4.267-21.333 0-46.933 8.533-64l119.467-277.333c0-4.267 4.267-4.267 4.267-4.267s4.267 0 4.267 4.267l110.933 273.067c8.533 17.067 12.8 34.133 12.8 51.2 4.267 68.267-55.467 123.733-128 123.733zM499.2 384c-38.4 0-68.267 29.867-68.267 68.267s29.867 68.267 68.267 68.267c38.4 0 68.267-29.867 68.267-68.267s-29.867-68.267-68.267-68.267zM499.2 494.934c-21.333 0-42.667-17.067-42.667-42.667 0-21.333 17.067-42.667 42.667-42.667 21.333 0 42.667 17.067 42.667 42.667-4.267 25.6-21.333 42.667-42.667 42.667zM499.2-42.666c-243.2 0-435.2 196.267-435.2 435.2s192 435.2 435.2 435.2 435.2-196.267 435.2-435.2-196.267-435.2-435.2-435.2zM499.2 785.067c-217.6 0-392.533-174.933-392.533-392.533s174.933-392.533 392.533-392.533 392.533 174.933 392.533 392.533-179.2 392.533-392.533 392.533z" />
<glyph unicode="&#xe921;" glyph-name="warning" d="M537.6-55.466c-238.933 0-435.2 196.267-435.2 435.2s196.267 435.2 435.2 435.2 435.2-196.267 435.2-435.2-196.267-435.2-435.2-435.2zM537.6 772.267c-217.6 0-392.533-174.933-392.533-392.533s174.933-392.533 392.533-392.533 392.533 174.933 392.533 392.533-179.2 392.533-392.533 392.533zM537.6 119.467c-25.6 0-38.4 17.067-38.4 38.4s17.067 38.4 38.4 38.4 38.4-17.067 38.4-38.4c0-21.333-12.8-38.4-38.4-38.4zM563.2 264.534h-51.2v379.733h51.2v-379.733z" />
<glyph unicode="&#xe922;" glyph-name="sale" d="M512-29.866c-238.933 0-435.2 196.267-435.2 435.2s196.267 435.2 435.2 435.2 435.2-196.267 435.2-435.2-196.267-435.2-435.2-435.2zM512 797.867c-217.6 0-392.533-174.933-392.533-392.533s174.933-392.533 392.533-392.533 392.533 174.933 392.533 392.533-174.933 392.533-392.533 392.533zM307.2 430.934c0 8.533-4.267 17.067-8.533 21.333s-12.8 8.533-21.333 8.533-17.067-4.267-21.333-8.533c-4.267-4.267-8.533-12.8-8.533-17.067s4.267-12.8 8.533-12.8c4.267-4.267 12.8-8.533 29.867-12.8 25.6-8.533 42.667-12.8 51.2-25.6 8.533-8.533 12.8-21.333 12.8-38.4 0-21.333-4.267-38.4-17.067-46.933-12.8-12.8-29.867-17.067-51.2-17.067s-38.4 4.267-51.2 17.067c-12.8 12.8-17.067 29.867-17.067 51.2h34.133c0-12.8 4.267-17.067 8.533-25.6 4.267-4.267 17.067-8.533 25.6-8.533s17.067 4.267 25.6 8.533c4.267 4.267 8.533 12.8 8.533 17.067 0 8.533-4.267 12.8-8.533 17.067s-17.067 8.533-34.133 12.8c-21.333 4.267-38.4 12.8-46.933 21.333-8.533 12.8-12.8 25.6-12.8 42.667 0 21.333 4.267 34.133 17.067 46.933s25.6 17.067 46.933 17.067c21.333 0 38.4-4.267 46.933-17.067 12.8-12.8 17.067-25.6 17.067-51.2h-34.133zM422.4 494.934h42.667l59.733-204.8h-34.133l-12.8 42.667h-68.267l-12.8-42.667h-34.133l59.733 204.8zM418.133 366.934h42.667l-21.333 81.067-21.333-81.067zM546.133 290.134v204.8h34.133v-170.667h85.333v-34.133h-119.467zM686.933 290.134v204.8h123.733v-34.133h-85.333v-42.667h81.067v-34.133h-81.067v-51.2h93.867v-34.133h-132.267z" />
<glyph unicode="&#xe923;" glyph-name="choice" d="M558.933 827.734c-234.667 0-422.4-187.733-422.4-422.4s187.733-422.4 422.4-422.4 422.4 187.733 422.4 422.4c0 234.667-187.733 422.4-422.4 422.4zM759.467 516.267l-260.267-311.467-136.533 157.867c-8.533 8.533-8.533 21.333 4.267 29.867 8.533 8.533 21.333 8.533 29.867-4.267l102.4-123.733 230.4 273.067c8.533 8.533 21.333 8.533 29.867 4.267s8.533-17.067 0-25.6z" />
<glyph unicode="&#xe924;" glyph-name="Collection" d="M704 81.067l-8.533 4.267-183.467 98.133-187.733-98.133h-12.8c-12.8 0-21.333 4.267-29.867 12.8s-8.533 21.333-8.533 29.867l34.133 204.8-149.333 145.067c-8.533 8.533-12.8 25.6-8.533 38.4s17.067 21.333 29.867 25.6l204.8 29.867 89.6 183.467c4.267 12.8 17.067 21.333 34.133 21.333v0c12.8 0 25.6-8.533 34.133-21.333l89.6-183.467 204.8-29.867c12.8 0 25.6-12.8 29.867-25.6s0-29.867-8.533-38.4l-149.333-145.067 34.133-204.8c0-12.8 0-21.333-8.533-29.867s-17.067-12.8-29.867-12.8v0zM512 243.2c4.267 0 12.8 0 17.067-4.267l153.6-81.067-29.867 170.667c0 12.8 4.267 25.6 12.8 34.133l123.733 123.733-174.933 25.6c-12.8 0-21.333 8.533-29.867 21.333l-72.533 153.6-76.8-157.867c-4.267-12.8-17.067-17.067-29.867-21.333l-174.933-25.6 123.733-123.733c8.533-8.533 12.8-21.333 12.8-34.133l-29.867-170.667 162.133 85.333 12.8 4.267z" />
<glyph unicode="&#xe925;" glyph-name="balance" d="M563.2-17.066c-238.933 0-435.2 196.267-435.2 435.2s196.267 435.2 435.2 435.2 435.2-196.267 435.2-435.2-196.267-435.2-435.2-435.2zM563.2 810.667c-217.6 0-392.533-174.933-392.533-392.533s174.933-392.533 392.533-392.533 392.533 174.933 392.533 392.533-179.2 392.533-392.533 392.533zM396.8 588.8h72.533l85.333-166.4 85.333 166.4h72.533l-106.667-192h72.533v-34.133h-93.867v-46.933h93.867v-34.133h-93.867v-85.333h-64v85.333h-93.867v34.133h93.867v46.933h-89.6v34.133h72.533l-106.667 192z" />
<glyph unicode="&#xe926;" glyph-name="women" d="M800.084 862.829c0 0-120.285-160.382-166.108-229.117-40.097-68.735-120.285-217.658-131.738-252.023s-28.638-68.735-85.92-80.188c-57.277-11.453-97.373 0-154.65-34.365 0 0-211.932-80.188-211.932-114.558s11.453-63.008 206.205-97.373c200.473-28.638 315.032 0 337.943 103.1s91.647 280.667 114.558 297.847c17.185 22.912 51.55 51.55 80.188 0v-412.405h63.008c0 0-17.185 217.658 5.727 349.402 28.638 137.47 63.008 166.108 74.462 217.658s11.453 148.923-131.738 252.023v0z" />
<glyph unicode="&#xe927;" glyph-name="men" d="M498.98 421.846c0 0 96.415 144.623 241.039 33.746 149.445-110.878 115.699-120.52 216.935-14.462 0 0 14.462-101.236-86.774-173.548s-183.189-57.849-226.576-38.566c-43.387 19.283-120.52 67.491-144.623 96.415 0 0-96.415-130.161-221.756-115.699-130.161 14.462-183.189 81.953-197.652 106.058s-33.746 62.671-38.566 120.52c0 0 81.953-144.623 173.548-24.104 0 0 134.982 115.699 216.935 67.491 0 9.641 48.208-19.283 67.491-57.849v0z" />
<glyph unicode="&#xe928;" d="M516.894-62.745c-274.069 0-499.199 225.13-499.199 499.199s225.13 499.199 499.199 499.199 499.199-225.13 499.199-499.199-225.13-499.199-499.199-499.199zM516.894 886.713c-249.601 0-450.259-200.658-450.259-450.259s200.658-450.259 450.259-450.259 450.259 200.658 450.259 450.259-200.658 450.259-450.259 450.259z" />
<glyph unicode="&#xe929;" d="M614.776 133.020c-14.681 0-29.365 0-44.046 4.894-34.259 4.894-78.305 4.894-112.563 0-14.681 0-29.365-4.894-44.046-4.894s-34.259 0-48.943 14.681c-14.681 9.787-19.578 29.365-19.578 53.836v239.811c0 97.882 78.305 97.882 161.506 97.882s166.4 0 166.4-97.882v-239.811c4.894-63.624-29.365-68.517-58.73-68.517v0zM516.894 162.385c19.578 0 39.152 0 58.73-4.894 14.681 0 29.365-4.894 39.152-4.894 29.365 0 39.152 4.894 39.152 44.046v239.811c0 68.517-48.943 68.517-137.035 68.517-92.989 0-137.035-4.894-137.035-68.517v-239.811c0-19.578 4.894-29.365 9.787-34.259 9.787-4.894 34.259-4.894 68.517-4.894 14.681 4.894 39.152 4.894 58.73 4.894v0z" />
<glyph unicode="&#xe92a;" d="M629.46 514.762h-24.471v39.152c0 53.836-39.152 92.989-88.095 92.989s-88.095-44.046-88.095-92.989v-39.152h-24.471v39.152c0 63.624 48.943 117.46 112.563 117.46s112.563-53.836 112.563-117.46v-39.152z" />
<glyph unicode="&#xe92b;" d="M565.836 646.903h-24.471c0 34.259-4.894 68.517-24.471 68.517-24.471 0-24.471-34.259-24.471-68.517h-24.471c0 29.365 0 92.989 48.943 92.989s48.943-63.624 48.943-92.989v0z" />
<glyph unicode="&#xe92c;" d="M546.259 402.195h112.563v-24.471h-117.46v24.471h4.894z" />
<glyph unicode="&#xe92d;" d="M541.365 343.465h117.46v-24.471h-117.46v24.471z" />
<glyph unicode="&#xe92e;" d="M546.259 284.738h112.563v-24.471h-117.46v24.471h4.894z" />
<glyph unicode="&#xe92f;" d="M516.894-69.398c-278.966 0-499.199 225.13-499.199 499.199s220.236 499.199 499.199 499.199 494.305-225.13 494.305-499.199-220.236-499.199-494.305-499.199zM516.894 880.064c-249.601 0-450.259-200.658-450.259-450.259s200.658-450.259 450.259-450.259 450.259 200.658 450.259 450.259-205.552 450.259-450.259 450.259z" />
<glyph unicode="&#xe930;" d="M428.799 498.322c0 4.894 0 19.578 0 53.836 0 48.943-29.365 102.776-58.73 122.354-19.578 4.894-34.259 0-39.152 0-39.152-19.578-39.152-88.095-39.152-97.882v-83.201c-14.681-9.787-24.471-29.365-24.471-53.836v-190.871c0-34.259 29.365-63.624 63.624-63.624h63.624c34.259 0 63.624 29.365 63.624 63.624v190.871c0 24.471-9.787 44.046-29.365 58.73v0 0zM345.6 645.144c0 0 4.894-4.894 14.681-9.787 14.681-14.681 39.152-53.836 39.152-88.095 0-24.471 0-44.046 0-44.046s-4.894 0-4.894 0h-63.624c-4.894 0-4.894 0-9.787 0v73.411c4.894 24.471 9.787 58.73 24.471 68.517v0zM394.54 214.462h-63.624c-19.578 4.894-34.259 19.578-34.259 34.259v190.871c4.894 19.578 19.578 34.259 34.259 39.152h63.624c19.578-4.894 34.259-19.578 34.259-34.259v-190.871c0-24.471-14.681-39.152-34.259-39.152v0z" />
<glyph unicode="&#xe931;" d="M321.129 444.485c-4.894 0-4.894-4.894-4.894-9.787v-156.612c0-4.894 4.894-9.787 9.787-9.787s9.787 4.894 9.787 9.787v156.612c-4.894 4.894-9.787 9.787-14.681 9.787v0 0z" />
<glyph unicode="&#xe932;" d="M678.4 478.744l78.305 122.354c9.787 9.787 4.894 19.578 0 24.471-39.152 29.365-83.201 48.943-137.035 48.943-58.73 0-112.563-19.578-151.719-53.836-4.894-4.894-4.894-14.681 0-19.578l83.201-112.563c0-4.894 4.894-4.894 9.787-4.894-4.894-4.894-4.894-14.681-4.894-19.578l-29.365-230.023c0-14.681 4.894-24.471 9.787-34.259 9.787-9.787 19.578-14.681 34.259-14.681h78.305c14.681 0 24.471 4.894 34.259 14.681s14.681 24.471 9.787 34.259l-19.578 225.13c0 4.894 0 9.787-4.894 14.681 9.787 4.894 9.787 4.894 9.787 4.894v0 0zM497.319 605.991c34.259 24.471 73.411 39.152 117.46 39.152h4.894c39.152-4.894 73.411-14.681 107.67-39.152l-68.517-97.882h-19.578l4.894 44.046c0 4.894-4.894 9.787-4.894 9.787-4.894 0-9.787-4.894-9.787-4.894l-4.894-44.046h-19.578l-4.894 44.046c0 4.894-4.894 9.787-9.787 4.894-4.894 0-9.787-4.894-4.894-9.787l4.894-44.046h-19.578l-73.411 97.882zM649.035 434.698h-68.517v19.578c0 9.787 9.787 19.578 19.578 19.578h24.471c9.787 0 19.578-9.787 19.578-19.578l4.894-19.578zM653.928 214.462h-78.305c0 0-9.787 0-14.681 4.894s-4.894 9.787-4.894 9.787l19.578 185.977h78.305l19.578-185.977c0 0 0-4.894-4.894-9.787-9.787-4.894-14.681-4.894-14.681-4.894v0z" />
<glyph unicode="&#xe933;" d="M778.378 634.022v0c0 0 0 0 0 0 0 19.578-14.681 34.259-34.259 34.259 0 0 0 0 0 0v0h-464.94c-14.681-4.894-29.365-19.578-29.365-34.259 0 0 0 0 0 0v0-362.164c0 0 0 0 0 0 0-19.578 14.681-34.259 34.259-34.259 0 0 0 0 0 0v0h166.4v-34.259h-34.259v-34.259h200.658v34.259h-34.259v34.259h166.4c0 0 0 0 0 0 19.578 0 34.259 14.681 34.259 34.259 0 0 0 0 0 0v0 362.164h-4.894zM279.179 599.763c0 0 0 34.259 0 34.259s34.259 0 34.259 0h430.682v-264.282h-464.94v230.023zM548.355 203.34h-68.517v34.259h68.517v-34.259zM744.12 266.964h-464.94v68.517h464.94v-68.517z" />
<glyph unicode="&#xe934;" d="M514.096-80.52c-274.069 0-499.199 225.13-499.199 499.199s225.13 499.199 499.199 499.199 499.199-225.13 499.199-499.199-225.13-499.199-499.199-499.199zM514.096 868.941c-249.601 0-450.259-200.658-450.259-450.259s200.658-450.259 450.259-450.259 450.259 200.658 450.259 450.259-200.658 450.259-450.259 450.259z" />
<glyph unicode="&#xe935;" d="M512-79.185c-274.069 0-499.199 225.13-499.199 499.199s225.13 499.199 499.199 499.199 499.199-225.13 499.199-499.199-225.13-499.199-499.199-499.199zM512 870.274c-249.601 0-450.259-200.658-450.259-450.259s200.658-450.259 450.259-450.259 450.259 200.658 450.259 450.259-200.658 450.259-450.259 450.259z" />
<glyph unicode="&#xe936;" d="M717.552 522.793h-29.365l4.894 53.836c0 14.681-4.894 29.365-14.681 39.152s-24.471 19.578-39.152 19.578h-249.601c-14.681 0-29.365-4.894-39.152-19.578-14.681-9.787-19.578-24.471-19.578-39.152l4.894-53.836h-29.365c-24.471 0-39.152-19.578-39.152-48.943v-205.552c0-29.365 14.681-48.943 39.152-48.943 0 0 0 0 0 0 0-9.787 9.787-19.578 19.578-19.578h39.152c9.787 0 19.578 9.787 19.578 19.578h259.388c0-9.787 9.787-19.578 19.578-19.578h44.046c9.787 0 19.578 9.787 19.578 19.578 0 0 0 0 0 0 19.578 4.894 39.152 24.471 39.152 48.943v205.552c-4.894 29.365-24.471 48.943-48.943 48.943v0 0zM365.175 248.721h-58.73c-9.787 0-14.681 9.787-14.681 24.471v205.552c0 9.787 4.894 19.578 14.681 19.578h53.836c0 0 0 0 0 0 9.787 0 14.681-9.787 14.681-24.471 0 0 0 0 0 0l9.787-122.354 4.894-102.776h-24.471zM600.095 248.721h-181.084l-4.894 83.201h195.765l-9.787-83.201zM614.776 429.805c0 0 0 0 0 0l-4.894-73.411h-195.765l-4.894 68.517c0 0 0 0 0 0l-4.894 44.046c0 29.365-19.578 48.943-44.046 48.943v58.73c0 9.787 0 14.681 4.894 19.578s14.681 9.787 19.578 9.787h249.601c9.787 0 14.681-4.894 19.578-9.787s9.787-14.681 4.894-19.578l-4.894-53.836c-24.471 0-44.046-24.471-44.046-48.943l4.894-44.046zM732.236 273.192c0-9.787-4.894-24.471-14.681-24.471h-88.095l4.894 97.882 9.787 127.247c0 0 0 0 0 0 0 9.787 4.894 19.578 14.681 24.471 0 0 0 0 0 0h53.836c9.787 0 14.681-9.787 14.681-19.578v-205.552h4.894z" />
<glyph unicode="&#xe937;" d="M521.793-72.847c-274.243 0-499.514 225.271-499.514 499.514s225.271 494.617 499.514 494.617 499.514-225.271 499.514-499.514-220.374-494.617-499.514-494.617zM521.793 872.312c-249.757 0-450.544-200.784-450.544-450.544s200.784-450.544 450.544-450.544 450.544 200.784 450.544 450.544-200.784 450.544-450.544 450.544z" />
<glyph unicode="&#xe938;" d="M286.729 563.789c0 0 0 0 0 0l117.532-102.842c9.793-4.897 19.59-4.897 24.486 0s4.897 19.59 0 24.486l-117.532 102.842c-14.693 14.693-14.693 34.28 0 48.973 4.897 4.897 14.693 9.793 24.486 9.793s19.59-4.897 24.486-9.793l102.842-117.532c4.897-9.793 19.59-9.793 24.486 0 4.897 4.897 9.793 19.59 0 24.486l-102.842 117.532c0 0 0 0 0 0-14.693 14.693-29.383 19.59-48.973 19.59s-34.28-4.897-48.973-19.59c-29.383-29.383-29.383-73.459 0-97.945z" />
<glyph unicode="&#xe939;" d="M281.833 201.396c9.793-14.693 24.486-19.59 39.176-19.59 9.793 0 14.693 0 24.486 4.897 29.383 9.793 102.842 39.176 151.815 63.663 4.897 4.897 9.793 4.897 14.693 9.793 0-4.897 4.897-4.897 4.897-9.793l93.046-83.252c4.897-4.897 14.693-9.793 24.486-9.793s19.59 4.897 24.486 9.793l14.693 14.693c4.897 4.897 9.793 9.793 9.793 19.59 4.897 0 14.693 4.897 19.59 9.793l19.59 19.59c4.897 4.897 9.793 9.793 9.793 19.59 4.897 0 14.693 4.897 19.59 9.793l14.693 14.693c14.693 14.693 14.693 34.28 0 48.973l-107.739 122.432c0 0 0 0 0 0s-9.793 14.693-29.383 24.486l107.739 107.739c9.793 9.793 14.693 24.486 14.693 39.176s-4.897 29.383-14.693 39.176c-9.793 9.793-24.486 14.693-39.176 14.693s-29.383-4.897-39.176-14.693l-377.085-377.085c-19.59-24.486-19.59-58.766 0-78.356v0 0 0zM639.328 201.396l-93.046 83.252c9.793 9.793 19.59 19.59 24.486 29.383l83.252-93.046-14.693-19.59zM639.328 431.564l107.739-122.432-14.693-14.693-97.945 88.149-14.693-14.693 83.252-102.842-19.59-19.59-97.945 78.356-4.897-4.897c4.897 4.897 4.897 9.793 4.897 9.793v97.945l29.383 29.383c14.693-14.693 24.486-24.486 24.486-24.486v0 0 0zM306.316 255.266l386.879 386.879c4.897 4.897 9.793 4.897 14.693 4.897s9.793 0 14.693-4.897c9.793-9.793 9.793-19.59 0-29.383l-127.328-127.328c0 0-4.897-4.897-4.897-4.897l-29.383-29.383c0 0-4.897-4.897-4.897-4.897l-4.897-4.897v-93.046c0 0-14.693-29.383-68.562-58.766s-127.328-53.869-151.815-63.663c-4.897 0-4.897-4.897-9.793-4.897s-9.793 0-14.693 4.897c-4.897 4.897-4.897 19.59 0 29.383v0 0 0z" />
<glyph unicode="&#xe93a;" d="M516.811-70.902c-269.386 0-490.667 221.281-490.667 490.667s216.47 490.667 490.667 490.667 490.667-221.281 490.667-490.667-221.281-490.667-490.667-490.667zM516.811 862.327c-245.333 0-442.562-197.229-442.562-442.562s197.229-442.562 442.562-442.562 442.562 197.229 442.562 442.562-202.040 442.562-442.562 442.562z" />
<glyph unicode="&#xe93b;" d="M781.386 208.104l-38.483 303.059c-4.811 24.052-24.052 43.294-48.104 43.294h-48.104c0 0 0 0 0 0 0 72.157-57.725 134.693-134.693 134.693s-134.693-57.725-134.693-134.693c0 0 0 0 0 0h-48.104c-24.052 0-43.294-19.242-48.104-43.294l-38.483-303.059c0-14.432 0-28.863 9.621-43.294 9.621-9.621 19.242-14.432 33.674-14.432h442.562c14.432 0 24.052 4.811 33.674 14.432 19.242 14.432 24.052 28.863 19.242 43.294v0 0zM415.791 554.457c0 57.725 43.294 101.020 101.020 101.020s101.020-43.294 101.020-101.020c0 0 0 0 0 0h-202.040c0 0 0 0 0 0v0 0zM334.013 520.782h365.596c4.811 0 14.432-4.811 14.432-14.432l9.621-62.536-206.85-67.346-206.85 67.346 9.621 67.346c0 4.811 4.811 9.621 14.432 9.621v0 0zM747.713 188.862c0-4.811-4.811-4.811-9.621-4.811h-447.373c-4.811 0-4.811 0-9.621 4.811s-4.811 9.621-4.811 14.432l24.052 206.85 202.040-67.346c0 0 4.811 0 4.811 0s4.811 0 4.811 0l202.040 67.346 24.052-206.85c9.621-4.811 9.621-9.621 9.621-14.432v0 0zM483.137 439.006h67.346c9.621 0 14.432 9.621 14.432 14.432 0 9.621-9.621 14.432-14.432 14.432h-67.346c-9.621 0-14.432-9.621-14.432-14.432-4.811-9.621 4.811-14.432 14.432-14.432v0 0z" />
<glyph unicode="&#xe93c;" d="M521.787-72.532c-274.069 0-499.199 225.13-499.199 499.199s225.13 499.199 499.199 499.199 499.199-225.13 499.199-499.199-225.13-499.199-499.199-499.199zM521.787 876.926c-249.601 0-450.259-200.658-450.259-450.259s200.658-450.259 450.259-450.259 450.259 200.658 450.259 450.259-200.658 450.259-450.259 450.259z" />
<glyph unicode="&#xe93d;" d="M639.247 128.126h-234.917c-9.787 0-14.681 9.787-14.681 14.681v88.095c0 9.787 9.787 14.681 14.681 14.681 9.787 0 14.681-9.787 14.681-14.681v-68.517h200.658v68.517c0 9.787 9.787 14.681 14.681 14.681 9.787 0 14.681-9.787 14.681-14.681v-88.095c4.894-4.894 0-14.681-9.787-14.681v0z" />
<glyph unicode="&#xe93e;" d="M404.33 602.854c-9.787 0-14.681 9.787-14.681 19.578v88.095c0 9.787 9.787 14.681 14.681 14.681h230.023c9.787 0 14.681-9.787 14.681-14.681v-88.095c0-9.787-9.787-14.681-14.681-14.681-9.787 0-14.681 9.787-14.681 14.681v68.517h-200.658v-68.517c4.894-9.787-4.894-19.578-14.681-19.578v0z" />
<glyph unicode="&#xe93f;" d="M521.787 191.75c-132.141 0-234.917 107.67-234.917 234.917 0 132.141 107.67 234.917 234.917 234.917s234.917-102.776 234.917-234.917c0-132.141-102.776-234.917-234.917-234.917v0zM521.787 632.219c-112.563 0-205.552-92.989-205.552-205.552s92.989-205.552 205.552-205.552c112.563 0 205.552 92.989 205.552 205.552s-92.989 205.552-205.552 205.552v0z" />
<glyph unicode="&#xe940;" d="M521.787 392.408c-4.894 0-9.787 0-9.787 4.894l-73.411 73.411c-4.894 4.894-4.894 14.681 0 24.471 4.894 4.894 14.681 4.894 24.471 0l63.624-63.624 83.201 92.989c4.894 4.894 14.681 4.894 24.471 0 4.894-4.894 4.894-14.681 0-24.471l-102.776-102.776c0 0-4.894-4.894-9.787-4.894v0z" />
<glyph unicode="&#xe941;" d="M512-72.532c-274.069 0-499.199 225.13-499.199 499.199s225.13 499.199 499.199 499.199 499.199-225.13 499.199-499.199-225.13-499.199-499.199-499.199zM512 876.926c-249.601 0-450.259-200.658-450.259-450.259s200.658-450.259 450.259-450.259 450.259 200.658 450.259 450.259-200.658 450.259-450.259 450.259z" />
<glyph unicode="&#xe942;" d="M693.084 490.291v-259.388c0-39.152-34.259-73.411-73.411-73.411h-215.342c-39.152 0-73.411 34.259-73.411 73.411v269.176c0 9.787 4.894 14.681 9.787 14.681l73.411 73.411c-24.471 4.894-48.943 24.471-48.943 53.836s24.471 53.836 58.73 53.836h176.187c29.365 0 53.836-24.471 53.836-53.836s-19.578-48.943-48.943-53.836l78.305-78.305c9.787-4.894 9.787-9.787 9.787-19.578v0zM619.67 642.009c0 9.787-9.787 19.578-19.578 19.578h-181.084c-9.787 0-19.578-9.787-19.578-19.578 4.894-9.787 9.787-19.578 24.471-19.578h181.084c4.894 0 14.681 9.787 14.681 19.578v0zM653.928 353.256v88.095h-141.928v-181.084h141.928v92.989zM492.422 230.902c-9.787 0-19.578 9.787-19.578 19.578v215.342c0 9.787 9.787 19.578 19.578 19.578h161.506v9.787l-97.882 97.882h-92.989l-97.882-97.882v-264.282c0-19.578 14.681-34.259 34.259-34.259h215.342c19.578 0 34.259 14.681 34.259 34.259h-156.612zM639.247 338.572h-19.578v-19.578c0-9.787-9.787-19.578-19.578-19.578s-19.578 9.787-19.578 19.578v19.578h-19.578c-9.787 0-19.578 9.787-19.578 19.578s9.787 19.578 19.578 19.578h19.578v19.578c0 9.787 9.787 19.578 19.578 19.578s19.578-9.787 19.578-19.578v-19.578h19.578c9.787 0 19.578-9.787 19.578-19.578-4.894-14.681-9.787-19.578-19.578-19.578v0z" />
<glyph unicode="&#xe943;" d="M521.787-78.66c-274.069 0-499.199 225.13-499.199 499.199s225.13 499.199 499.199 499.199 499.199-225.13 499.199-499.199-220.236-499.199-499.199-499.199zM521.787 870.799c-249.601 0-450.259-200.658-450.259-450.259s200.658-450.259 450.259-450.259 450.259 200.658 450.259 450.259-200.658 450.259-450.259 450.259z" />
<glyph unicode="&#xe944;" d="M712.658 635.881l53.836-58.73-83.201-83.201v-283.86h-318.118v283.86l-83.201 83.201 53.836 53.836h73.411c29.365-29.365 73.411-48.943 117.46-48.943s88.095 19.578 117.46 53.836h68.517zM732.236 679.928h-122.354c-14.681-34.259-48.943-53.836-88.095-53.836s-73.411 19.578-88.095 53.836h-117.46l-83.201-78.305c-9.787-14.681-9.787-34.259 0-44.046l83.201-83.201v-278.966c0-19.578 14.681-34.259 34.259-34.259h347.483c19.578 0 34.259 14.681 34.259 34.259v278.966l88.095 83.201c9.787 9.787 9.787 29.365 0 44.046l-88.095 78.305z" />
<glyph unicode="&#xe945;" d="M516.894-80.564c-274.069 0-499.199 225.13-499.199 499.199s220.236 499.199 499.199 499.199 499.199-225.13 499.199-499.199-225.13-499.199-499.199-499.199zM516.894 868.894c-249.601 0-450.259-200.658-450.259-450.259s200.658-450.259 450.259-450.259 450.259 200.658 450.259 450.259-205.552 450.259-450.259 450.259z" />
<glyph unicode="&#xe946;" d="M673.506 433.319h-58.73c-34.259 0-53.836 9.787-73.411 24.471-24.471 24.471-19.578 58.73-19.578 58.73v117.46c0 9.787-9.787 19.578-19.578 19.578h-244.707c-4.894-4.894-14.681-9.787-14.681-19.578v-362.164c0 0 0 0 0-4.894 0 0 0 0 0-4.894v-48.943c0-4.894 4.894-14.681 9.787-14.681 4.894-4.894 9.787-9.787 14.681-9.787h504.096c9.787 0 19.578 9.787 19.578 19.578v102.776c-4.894 44.046-58.73 122.354-117.46 122.354v0zM751.811 227.764h-474.731v24.471h474.731v-24.471zM751.811 286.494h-474.731v29.365h88.095c9.787 0 19.578 9.787 19.578 19.578s-9.787 19.578-19.578 19.578h-88.095v259.388h205.552v-39.152h-97.882c-9.787 0-19.578-9.787-19.578-19.578s9.787-19.578 19.578-19.578h102.776v-19.578c0 0 0-9.787 0-19.578h-48.943c-9.787 0-19.578-9.787-19.578-19.578s9.787-19.578 19.578-19.578h58.73c4.894-9.787 9.787-19.578 19.578-29.365 24.471-24.471 53.836-34.259 97.882-34.259h58.73c34.259 0 83.201-58.73 83.201-83.201l-4.894-24.471z" />
<glyph unicode="&#xe947;" glyph-name="other" d="M345.6 576.199h332.799v-48.943h-332.799v48.943zM345.6 468.53h332.799v-48.943h-332.799v48.943zM345.6 365.752h332.799v-48.943h-332.799v48.943zM379.859 258.081h264.282v-48.943h-264.282v48.943zM512-79.612c-274.069 0-499.199 225.13-499.199 499.199s225.13 499.199 499.199 499.199 499.199-225.13 499.199-499.199-225.13-499.199-499.199-499.199zM512 869.846c-249.601 0-450.259-200.658-450.259-450.259s200.658-450.259 450.259-450.259 450.259 200.658 450.259 450.259-200.658 450.259-450.259 450.259z" />
<glyph unicode="&#xe948;" d="M520.533 849.067c-234.667 0-430.933-196.267-430.933-430.933s192-430.933 430.933-430.933c238.933 0 430.933 192 430.933 430.933s-192 430.933-430.933 430.933z" />
<glyph unicode="&#xe949;" d="M422.4 657.067h-8.533l-4.267 12.8h-17.067l-8.533-12.8h-4.267l17.067 46.933h8.533l17.067-46.933zM401.067 691.2c0 0 0 4.267 0 0 0 4.267 0 4.267 0 0v0c0 4.267 0 4.267 0 0 0 4.267 0 0 0 0l-8.533-12.8h12.8l-4.267 12.8z" />
<glyph unicode="&#xe94a;" d="M482.133 657.067h-8.533v29.867c0 0 0 0 0 0s0 0 0 0 0 0 0 0 0 0 0 0 0 0 0 0 0 0 0 0 0 0 0 0 0 0 0 0l-12.8-29.867h-8.533l-12.8 29.867c0 0 0 0 0 0s0 0 0 0 0 0 0 0 0 0 0 0 0 0 0 0 0 0 0 0 0 0 0 0 0 0 0 0v-29.867h-12.8l4.267 46.933h8.533l12.8-34.133c0 0 0 0 0 0s0 0 0 0 0 0 0 0 0 0 0 0 0 0 0 0 0 0 0 0 0 0 0 0 0 0 0 0l17.067 34.133h8.533l4.267-46.933z" />
<glyph unicode="&#xe94b;" d="M541.867 678.4c0 0 0 0 0 0 0-4.267 0-4.267-4.267-8.533 0 0 0-4.267 0-4.267s0 0 0-4.267c0 0 4.267-4.267 4.267-4.267s4.267 0 4.267 0c0 0 0 0 0 0s0 0 4.267 0v-4.267c0 0 0 0-4.267 0 0 0 0 0-4.267 0 0 0-4.267 0-4.267 0s0 0-4.267 0c0 0 0 0-4.267 0 0 0 0 0-4.267 4.267 0 0 0 0-4.267-4.267 0 0 0 0-4.267 0 0 0-4.267 0-4.267 0s-4.267 0-4.267 0-4.267 0-4.267 0-4.267 0-4.267 4.267c0 0 0 4.267-4.267 4.267 0 0 0 4.267 0 4.267s0 4.267 0 4.267c0 0 0 4.267 4.267 4.267 0 0 4.267 4.267 4.267 4.267s4.267 0 4.267 4.267c0 0 0 4.267 0 4.267s0 4.267 0 4.267c0 0 0 4.267 0 4.267s0 4.267 4.267 4.267c0 0 4.267 0 4.267 4.267 0 0 4.267 0 4.267 0s4.267 0 4.267 0c0 0 4.267 0 4.267 0v-4.267c0 0 0 0 0 0s0 0-4.267 0c0 0 0 0-4.267 0 0 0 0 0-4.267 0 0 0-4.267 0-4.267 0s0 0 0 0 0 0 0 0 0 0 0 0 0-4.267 0-4.267c0 0 0-4.267 4.267-4.267 0 0 0 0 0-4.267 0 0 0-4.267 4.267-4.267 0 0 0-4.267 4.267-4.267 0 0 0-4.267 4.267-4.267 0 0 0 4.267 0 4.267s0 4.267 0 4.267h12.8v-4.267zM520.533 661.334c0 0 4.267 0 4.267 0s4.267 0 4.267 4.267c0 4.267-4.267 4.267-4.267 8.533s-4.267 4.267-4.267 8.533c0 0-4.267 0-4.267-4.267 0 0 0 0-4.267-4.267 0 0 0 0 0-4.267 0 0 0 0 0-4.267 0 0 0-4.267 0-4.267s0 0 0-4.267c0 4.267 4.267 4.267 8.533 4.267-4.267 0-4.267 0 0 0z" />
<glyph unicode="&#xe94c;" d="M605.867 691.2c0-4.267 0-4.267 0-4.267s-4.267-4.267-4.267-4.267c0 0-4.267-4.267-8.533-4.267s-4.267 0-8.533 0v-21.333h-8.533v46.933h8.533c4.267 0 4.267 0 8.533 0s4.267 0 4.267-4.267c0 0 4.267-4.267 4.267-4.267 4.267 0 4.267 0 4.267-4.267zM597.333 691.2c0 0 0 4.267 0 0 0 4.267 0 4.267-4.267 4.267 0 0-4.267 0-4.267 0s-4.267 0-4.267 0h-4.267v-12.8h4.267c4.267 0 8.533 0 8.533 4.267 4.267 0 4.267 0 4.267 4.267z" />
<glyph unicode="&#xe94d;" d="M665.6 657.067h-8.533v29.867c0 0 0 0 0 0s0 0 0 0 0 0 0 0 0 0 0 0 0 0 0 0 0 0 0 0 0 0 0 0 0 0 0 0l-12.8-29.867h-8.533l-12.8 29.867c0 0 0 0 0 0s0 0 0 0 0 0 0 0 0 0 0 0 0 0 0 0 0 0 0 0 0 0 0 0 0 0 0 0v-29.867h-8.533l4.267 46.933h8.533l12.8-34.133c0 0 0 0 0 0s0 0 0 0 0 0 0 0 0 0 0 0 0 0 0 0 0 0 0 0 0 0 0 0 0 0 0 0l12.8 34.133h8.533l4.267-46.933z" />
<glyph unicode="&#xe94e;" d="M337.067 183.467h-12.8v-38.4h-8.533v38.4h-12.8v8.533h38.4v-8.533z" />
<glyph unicode="&#xe94f;" d="M379.733 145.067h-29.867v46.933h25.6v-8.533h-17.067v-12.8h17.067v-8.533h-17.067v-12.8h17.067v-4.267z" />
<glyph unicode="&#xe950;" d="M430.933 145.067h-8.533l-21.333 29.867c0 0 0 4.267-4.267 4.267v0c0 0 0-4.267 0-8.533v-25.6h-8.533v46.933h12.8l21.333-29.867c0 0 0-4.267 4.267-4.267v0c0 0 0 4.267 0 8.533v25.6h8.533v-46.933z" />
<glyph unicode="&#xe951;" d="M499.2 183.467h-17.067v-12.8h17.067v-8.533h-17.067v-17.067h-12.8v46.933h25.6v-8.533z" />
<glyph unicode="&#xe952;" d="M524.8 183.467v0l-4.267-29.867h4.267v-8.533h-17.067v8.533h4.267v29.867h-4.267v8.533h17.067v-8.533z" />
<glyph unicode="&#xe953;" d="M563.2 183.467h-17.067v-12.8h17.067v-8.533h-17.067v-17.067h-8.533v46.933h25.6v-8.533z" />
<glyph unicode="&#xe954;" d="M610.133 183.467h-12.8v-38.4h-8.533v38.4h-12.8v8.533h38.4v-8.533z" />
<glyph unicode="&#xe955;" d="M648.533 145.067h-29.867v46.933h25.6v-8.533h-17.067v-12.8h17.067v-8.533h-17.067v-12.8h17.067v-4.267z" />
<glyph unicode="&#xe956;" d="M686.933 145.067h-29.867v46.933h25.6v-8.533h-17.067v-12.8h17.067v-8.533h-17.067v-12.8h17.067v-4.267z" />
<glyph unicode="&#xe957;" d="M742.4 145.067h-8.533l-21.333 29.867c0 0 0 4.267-4.267 4.267v0c0 0 0-4.267 0-8.533v-25.6h-8.533v46.933h12.8l21.333-29.867c0 0 0-4.267 4.267-4.267v0c0 0 0 4.267 0 8.533v25.6h8.533v-46.933z" />
<glyph unicode="&#xe958;" d="M290.133 328.534h-119.467v34.133h42.667v123.733l-42.667-8.533v34.133l81.067 17.067v-166.4h38.4v-34.133z" />
<glyph unicode="&#xe959;" d="M307.2 422.4c0 34.133 4.267 59.733 17.067 76.8s29.867 25.6 55.467 25.6c42.667 0 68.267-34.133 68.267-98.133 0-34.133-4.267-55.467-17.067-76.8-12.8-17.067-29.867-25.6-51.2-25.6-51.2 4.267-72.533 34.133-72.533 98.133zM349.867 426.667c0-42.667 8.533-68.267 29.867-68.267 17.067 0 29.867 21.333 29.867 68.267s-8.533 68.267-25.6 68.267c-25.6 0-34.133-21.333-34.133-68.267z" />
<glyph unicode="&#xe95a;" d="M725.333 328.534h-119.467v34.133h38.4v123.733l-42.667-8.533v34.133l81.067 17.067v-166.4h42.667v-34.133z" />
<glyph unicode="&#xe95b;" d="M755.2 371.2c12.8-8.533 25.6-12.8 42.667-12.8 12.8 0 21.333 4.267 25.6 8.533 8.533 4.267 8.533 12.8 8.533 21.333 0 21.333-12.8 29.867-42.667 29.867-8.533 0-17.067 0-29.867-4.267v110.933h106.667v-34.133h-72.533v-42.667c4.267 0 8.533 0 17.067 0 21.333 0 34.133-4.267 46.933-17.067 12.8-8.533 17.067-25.6 17.067-42.667 0-21.333-8.533-34.133-21.333-46.933s-29.867-17.067-55.467-17.067c-17.067 0-34.133 4.267-46.933 8.533v38.4z" />
<glyph unicode="&#xe95c;" d="M541.867 375.467c0-11.782-9.551-21.333-21.333-21.333s-21.333 9.551-21.333 21.333c0 11.782 9.551 21.333 21.333 21.333s21.333-9.551 21.333-21.333z" />
<glyph unicode="&#xe95d;" d="M541.867 477.867c0-11.782-9.551-21.333-21.333-21.333s-21.333 9.551-21.333 21.333c0 11.782 9.551 21.333 21.333 21.333s21.333-9.551 21.333-21.333z" />
<glyph unicode="&#xe95e;" glyph-name="tenfifteen-1" d="M520.533-4.266c-234.667 0-422.4 187.733-422.4 422.4s187.733 422.4 422.4 422.4c234.667 0 422.4-187.733 422.4-422.4s-187.733-422.4-422.4-422.4zM520.533 827.734c-226.133 0-409.6-183.467-409.6-409.6s183.467-409.6 409.6-409.6c226.133 0 409.6 183.467 409.6 409.6s-183.467 409.6-409.6 409.6zM426.667 648.534h-8.533l-4.267 12.8h-17.067l-4.267-12.8h-8.533l17.067 46.933h8.533l17.067-46.933zM405.333 682.667c0 0 0 0 0 0 0 4.267 0 4.267 0 0v0c0 4.267 0 4.267 0 0 0 0 0 0 0 0l-8.533-17.067h12.8l-4.267 17.067zM482.133 648.534h-8.533v29.867c0 0 0 0 0 0s0 0 0 0 0 0 0 0 0 0 0 0 0 0 0 0 0 0 0 0 0 0 0 0 0 0 0 0l-12.8-29.867h-4.267l-12.8 29.867c0 0 0 0 0 0s0 0 0 0 0 0 0 0 0 0 0 0 0 0 0 0 0 0 0 0 0 0 0 0 0 0 0 0v-29.867h-8.533l4.267 46.933h8.533l12.8-34.133c0 0 0 0 0 0s0 0 0 0 0 0 0 0 0 0 0 0 0 0 0 0 0 0 0 0 0 0 0 0 0 0 0 0l12.8 34.133h8.533v-46.933zM541.867 669.867c0 0 0-4.267 0 0 0-4.267 0-4.267-4.267-4.267 0 0 0 0 0-4.267 0 0 0 0 0-4.267 0 0 4.267-4.267 4.267-4.267s4.267 0 4.267 0c0 0 0 0 0 0s0 0 4.267 0v-4.267c0 0 0 0-4.267 0 0 0 0 0-4.267 0 0 0-4.267 0-4.267 0s0 0-4.267 0c0 0 0 0-4.267 0 0 0 0 0 0 4.267 0 0 0 0-4.267-4.267 0 0 0 0-4.267 0 0 0-4.267 0-4.267 0s-4.267 0-4.267 0-4.267 0-4.267 0-4.267 0-4.267 4.267c0 0 0 4.267-4.267 4.267 0 0 0 4.267 0 4.267s0 4.267 0 4.267c0 0 0 4.267 4.267 4.267 0 0 4.267 4.267 4.267 4.267s4.267 0 4.267 4.267c0 0 0 4.267 0 4.267s0 0 0 0 0 4.267 0 4.267c0 0 0 4.267 4.267 4.267 0 0 4.267 0 4.267 4.267 0 0 4.267 0 4.267 0s4.267 0 4.267 0c0 0 4.267 0 4.267 0v-4.267c0 0 0 0 0 0s0 0-4.267 0c0 0 0 0-4.267 0 0 0 0 0 0 0s-4.267 0-4.267 0c0 0 0 0 0 0s0 0 0 0 0 0 0 0 0-4.267 0-4.267c0 0 0-4.267 4.267-4.267 0 0 0 0 0-4.267 0 0 0-4.267 4.267-4.267 0 0 0-4.267 4.267-4.267 0 0 0-4.267 4.267-4.267 0 0 0 4.267 0 4.267s0 4.267 0 4.267h12.8v-4.267h-8.533zM520.533 652.8c0 0 4.267 0 4.267 0s4.267 0 4.267 4.267c0 4.267-4.267 4.267-4.267 8.533s-4.267 4.267-4.267 8.533c0 0-4.267 0-4.267-4.267 0 0 0 0-4.267-4.267 0 0 0 0 0-4.267 0 0 0 0 0-4.267 0 0 0-4.267 0-4.267s0 0 0-4.267c4.267 4.267 4.267 4.267 8.533 4.267-4.267 0-4.267 0 0 0zM601.6 682.667c0-4.267 0-4.267 0-4.267s-4.267-4.267-4.267-4.267c0 0-4.267-4.267-8.533-4.267s-4.267 0-8.533 0v-17.067h-8.533v42.667h8.533c4.267 0 4.267 0 8.533 0s4.267 0 4.267 0 4.267-4.267 4.267-4.267 4.267-8.533 4.267-8.533zM597.333 682.667c0 0 0 0 0 0 0 4.267 0 4.267-4.267 4.267 0 0 0 0-4.267 0 0 0-4.267 0-4.267 0h-4.267v-17.067h4.267c4.267 0 8.533 0 8.533 4.267s4.267 4.267 4.267 8.533zM661.333 648.534h-8.533v29.867c0 0 0 0 0 0s0 0 0 0 0 0 0 0 0 0 0 0 0 0 0 0 0 0 0 0 0 0 0 0 0 0 0 0l-12.8-29.867h-4.267l-12.8 29.867c0 0 0 0 0 0s0 0 0 0 0 0 0 0 0 0 0 0 0 0 0 0 0 0 0 0 0 0 0 0 0 0 0 0v-29.867h-8.533l4.267 46.933h8.533l12.8-34.133c0 0 0 0 0 0s0 0 0 0 0 0 0 0 0 0 0 0 0 0 0 0 0 0 0 0 0 0 0 0 0 0 0 0l12.8 34.133h8.533v-46.933zM345.6 192h-12.8v-38.4h-8.533v38.4h-12.8v8.533h34.133v-8.533zM384 153.6h-29.867v46.933h29.867v-8.533h-17.067v-12.8h17.067v-8.533h-17.067v-12.8h17.067v-4.267zM435.2 153.6h-8.533l-21.333 29.867c0 0 0 4.267-4.267 4.267v0c0 0 0-4.267 0-8.533v-25.6h-4.267v46.933h8.533l17.067-29.867c0 0 0-4.267 4.267-4.267v0c0 0 0 4.267 0 4.267v25.6h8.533v-42.667zM499.2 192h-17.067v-12.8h17.067v-8.533h-17.067v-17.067h-8.533v46.933h25.6v-8.533zM524.8 192v0l-4.267-29.867h4.267v-8.533h-17.067v8.533h4.267v29.867h-4.267v8.533h17.067v-8.533zM563.2 192h-17.067v-12.8h17.067v-8.533h-17.067v-17.067h-8.533v46.933h25.6v-8.533zM605.867 192h-12.8v-38.4h-8.533v38.4h-12.8v8.533h34.133v-8.533zM644.267 153.6h-25.6v46.933h21.333v-8.533h-17.067v-12.8h17.067v-8.533h-17.067v-12.8h17.067v-4.267zM682.667 153.6h-25.6v46.933h25.6v-8.533h-17.067v-12.8h17.067v-8.533h-17.067v-12.8h17.067v-4.267zM733.867 153.6h-8.533l-21.333 29.867c0 0 0 4.267-4.267 4.267v0c0 0 0-4.267 0-8.533v-25.6h-8.533v46.933h8.533l17.067-29.867c0 0 0-4.267 4.267-4.267v0c0 0 0 4.267 0 4.267v25.6h8.533v-42.667zM298.667 332.8h-115.2v29.867h38.4v119.467l-38.4-8.533v29.867l81.067 17.067v-157.867h34.133v-29.867zM315.733 422.4c0 34.133 4.267 55.467 17.067 72.533 12.8 21.333 29.867 29.867 51.2 29.867 42.667 0 64-29.867 64-93.867 0-29.867-4.267-55.467-17.067-72.533s-29.867-25.6-51.2-25.6c-42.667-4.267-64 29.867-64 89.6zM354.133 422.4c0-42.667 8.533-64 25.6-64s25.6 21.333 25.6 68.267c0 42.667-8.533 68.267-25.6 68.267s-25.6-25.6-25.6-72.533zM716.8 332.8h-115.2v29.867h38.4v119.467l-38.4-8.533v29.867l81.067 17.067v-157.867h38.4v-29.867zM746.667 371.2c12.8-8.533 25.6-12.8 38.4-12.8s21.333 4.267 25.6 8.533c8.533 4.267 8.533 12.8 8.533 21.333 0 21.333-12.8 29.867-38.4 29.867-8.533 0-17.067 0-29.867-4.267v106.667h102.4v-34.133h-68.267v-38.4c4.267 0 8.533 0 17.067 0 17.067 0 34.133-4.267 42.667-17.067 12.8-8.533 17.067-25.6 17.067-42.667 0-21.333-8.533-34.133-21.333-46.933s-29.867-17.067-51.2-17.067c-17.067 0-34.133 4.267-42.667 8.533v38.4zM541.867 375.467c0-11.782-9.551-21.333-21.333-21.333s-21.333 9.551-21.333 21.333c0 11.782 9.551 21.333 21.333 21.333s21.333-9.551 21.333-21.333zM541.867 477.867c0-11.782-9.551-21.333-21.333-21.333s-21.333 9.551-21.333 21.333c0 11.782 9.551 21.333 21.333 21.333s21.333-9.551 21.333-21.333z" />
<glyph unicode="&#xe95f;" glyph-name="home" d="M1007.072 417.52l-495.056 463.328-495.056-461.968c-9.68-9.040-10.224-24.24-1.168-33.92 9.040-9.68 24.24-10.224 33.92-1.168l462.272 431.36 462.288-432.672c4.64-4.336 10.528-6.48 16.4-6.48 6.4 0 12.8 2.544 17.52 7.6 9.056 9.68 8.56 24.864-1.12 33.92zM856 408c-13.248 0-24-10.752-24-24v-368h-192v256h-256v-256h-192v368c0 13.248-10.736 24-24 24s-24-10.752-24-24v-416h288v256h160v-256h288v416c0 13.248-10.752 24-24 24zM688 752h144v-128c0-13.264 10.752-24 24-24s24 10.736 24 24v176h-192c-13.248 0-24-10.736-24-24s10.752-24 24-24z" />
</font>
</defs>
</svg>
